<?xml version="1.0" encoding="UTF-8" standalone="no"?>
<!DOCTYPE svg PUBLIC "-//W3C//DTD SVG 1.1//EN" "http://www.w3.org/Graphics/SVG/1.1/DTD/svg11.dtd">
<svg width="100%" height="100%" viewBox="0 0 3300 2550" version="1.1" xmlns="http://www.w3.org/2000/svg" xmlns:xlink="http://www.w3.org/1999/xlink" xml:space="preserve" xmlns:serif="http://www.serif.com/" style="fill-rule:evenodd;clip-rule:evenodd;stroke-linecap:square;stroke-linejoin:round;stroke-miterlimit:1.5;">
    <g transform="matrix(1,0,0,1,-35.1146,-27.0098)">
        <rect x="222.358" y="266.484" width="2911.53" height="1971.42" style="fill:rgb(231,232,233);fill-opacity:0;stroke:rgb(35,31,32);stroke-width:4.17px;"/>
    </g>
    <g transform="matrix(1,0,0,1,-21,38)">
        <g transform="matrix(50,0,0,50,1972.63,915.285)">
        </g>
        <text x="1936.52px" y="915.285px" style="font-family:'ArialMT', 'Arial', sans-serif;font-size:50px;fill:rgb(35,31,32);">R</text>
    </g>
    <g transform="matrix(1,0,0,1,278.713,1403.21)">
        <g transform="matrix(50,0,0,50,1488.63,584.182)">
        </g>
        <text x="1460.82px" y="584.182px" style="font-family:'ArialMT', 'Arial', sans-serif;font-size:50px;fill:rgb(35,31,32);">θ</text>
    </g>
    <g transform="matrix(1,0,0,1,-140.886,102.591)">
        <g transform="matrix(50,0,0,50,1488.63,584.182)">
        </g>
        <text x="1460.82px" y="584.182px" style="font-family:'ArialMT', 'Arial', sans-serif;font-size:50px;fill:rgb(35,31,32);">θ</text>
    </g>
    <g transform="matrix(1,0,0,1,392.062,488.588)">
        <g transform="matrix(50,0,0,50,1488.63,584.182)">
        </g>
        <text x="1460.82px" y="584.182px" style="font-family:'ArialMT', 'Arial', sans-serif;font-size:50px;fill:rgb(35,31,32);">θ</text>
    </g>
    <g transform="matrix(1,0,0,1,-11.4013,59.2468)">
        <g transform="matrix(50,0,0,50,849.975,1198.51)">
        </g>
        <text x="811.083px" y="1198.51px" style="font-family:'ArialMT', 'Arial', sans-serif;font-size:50px;fill:rgb(35,31,32);">Q</text>
    </g>
    <g transform="matrix(1,0,0,1,-5.58228,101.649)">
        <g transform="matrix(50,0,0,50,2471.38,1265.88)">
        </g>
        <text x="2438.03px" y="1265.88px" style="font-family:'ArialMT', 'Arial', sans-serif;font-size:50px;fill:rgb(35,31,32);">P</text>
    </g>
    <g transform="matrix(1,0,0,1,-16.9836,17.0656)">
        <g transform="matrix(50,0,0,50,1994.08,1968.58)">
        </g>
        <text x="1969.08px" y="1968.58px" style="font-family:'ArialMT', 'Arial', sans-serif;font-size:50px;fill:rgb(35,31,32);">J</text>
    </g>
    <g transform="matrix(1,0,0,1,-16.9836,17.0565)">
        <g transform="matrix(50,0,0,50,234.246,1968.59)">
        </g>
        <text x="220.354px" y="1968.59px" style="font-family:'ArialMT', 'Arial', sans-serif;font-size:50px;fill:rgb(35,31,32);">I</text>
    </g>
    <g transform="matrix(1,0,0,1,-14.5248,40.5603)">
        <g transform="matrix(50,0,0,50,1981.52,494.783)">
        </g>
        <text x="1942.63px" y="494.783px" style="font-family:'ArialMT', 'Arial', sans-serif;font-size:50px;fill:rgb(35,31,32);">G</text>
    </g>
    <g transform="matrix(1,0,0,1,-14.5248,18.1581)">
        <g transform="matrix(50,0,0,50,257.082,516.575)">
        </g>
        <text x="223.733px" y="516.575px" style="font-family:'ArialMT', 'Arial', sans-serif;font-size:50px;fill:rgb(35,31,32);">E</text>
    </g>
    <g transform="matrix(0.54343,0,0,1.36016,633.714,-232.303)">
        <rect x="1351.19" y="344.918" width="968.73" height="1451.62" style="fill:rgb(231,232,233);fill-opacity:0;stroke:rgb(35,31,32);stroke-width:4.02px;"/>
    </g>
    <g transform="matrix(1,0,0,1,392.062,488.588)">
        <g transform="matrix(50,0,0,50,1488.63,584.182)">
        </g>
        <text x="1460.82px" y="584.182px" style="font-family:'ArialMT', 'Arial', sans-serif;font-size:50px;fill:rgb(35,31,32);">θ</text>
    </g>
    <g transform="matrix(1,0,0,1,-14.5248,29.7962)">
        <g transform="matrix(50,0,0,50,1434.46,504.937)">
        </g>
        <text x="1403.91px" y="504.937px" style="font-family:'ArialMT', 'Arial', sans-serif;font-size:50px;fill:rgb(35,31,32);">F</text>
    </g>
    <g transform="matrix(1.08979,0,0,1.16659,-141.976,-113.285)">
        <rect x="303.123" y="579.884" width="2668.78" height="1241.11" style="fill:none;stroke:black;stroke-width:5.54px;"/>
    </g>
    <g transform="matrix(0.887643,0.652218,-0.606474,0.825386,861.21,-744.58)">
        <rect x="1071.97" y="733.692" width="1166.46" height="840.684" style="fill:none;stroke:rgb(254,15,68);stroke-width:5.88px;stroke-linecap:round;"/>
    </g>
    <g transform="matrix(1,0,0,1,-2.8048,5.94654)">
        <g transform="matrix(50,0,0,50,196.761,207.282)">
        </g>
        <text x="163.411px" y="207.282px" style="font-family:'ArialMT', 'Arial', sans-serif;font-size:50px;fill:rgb(35,31,32);">A</text>
    </g>
    <g transform="matrix(1,0,0,1,-2.8048,25.8715)">
        <g transform="matrix(50,0,0,50,1373.52,187.357)">
        </g>
        <text x="1340.17px" y="187.357px" style="font-family:'ArialMT', 'Arial', sans-serif;font-size:50px;fill:rgb(35,31,32);">B</text>
    </g>
    <g transform="matrix(1,0,0,1,-2.8048,23.1125)">
        <g transform="matrix(50,0,0,50,1920.96,190.727)">
        </g>
        <text x="1884.85px" y="190.727px" style="font-family:'ArialMT', 'Arial', sans-serif;font-size:50px;fill:rgb(35,31,32);">C</text>
    </g>
    <g transform="matrix(1,0,0,1,-2.8048,22.3746)">
        <g transform="matrix(50,0,0,50,3127,190.854)">
        </g>
        <text x="3090.89px" y="190.854px" style="font-family:'ArialMT', 'Arial', sans-serif;font-size:50px;fill:rgb(35,31,32);">D</text>
    </g>
    <g transform="matrix(1,0,0,1,-14.5248,33.5754)">
        <g transform="matrix(50,0,0,50,3174.55,501.158)">
        </g>
        <text x="3138.44px" y="501.158px" style="font-family:'ArialMT', 'Arial', sans-serif;font-size:50px;fill:rgb(35,31,32);">H</text>
    </g>
    <g transform="matrix(1,0,0,1,-16.9836,35.9797)">
        <g transform="matrix(50,0,0,50,3171.58,1949.66)">
        </g>
        <text x="3138.23px" y="1949.66px" style="font-family:'ArialMT', 'Arial', sans-serif;font-size:50px;fill:rgb(35,31,32);">K</text>
    </g>
    <g transform="matrix(1,0,0,1,-5.69156,13.4503)">
        <g transform="matrix(50,0,0,50,229.912,2248.32)">
        </g>
        <text x="202.105px" y="2248.32px" style="font-family:'ArialMT', 'Arial', sans-serif;font-size:50px;fill:rgb(35,31,32);">L</text>
    </g>
    <g transform="matrix(1,0,0,1,-5.69156,15.6723)">
        <g transform="matrix(50,0,0,50,1416.39,2246.1)">
        </g>
        <text x="1374.74px" y="2246.1px" style="font-family:'ArialMT', 'Arial', sans-serif;font-size:50px;fill:rgb(35,31,32);">M</text>
    </g>
    <g transform="matrix(1,0,0,1,-5.69156,18.9051)">
        <g transform="matrix(50,0,0,50,1964.94,2242.86)">
        </g>
        <text x="1928.83px" y="2242.87px" style="font-family:'ArialMT', 'Arial', sans-serif;font-size:50px;fill:rgb(35,31,32);">N</text>
    </g>
    <g transform="matrix(1,0,0,1,-5.69156,14.677)">
        <g transform="matrix(50,0,0,50,3154.33,2247.73)">
        </g>
        <text x="3115.43px" y="2247.73px" style="font-family:'ArialMT', 'Arial', sans-serif;font-size:50px;fill:rgb(35,31,32);">O</text>
    </g>
    <path d="M1898.93,943.132L1403.85,1652.05" style="fill:none;stroke:black;stroke-width:6.25px;"/>
    <g transform="matrix(1,0,0,1,0,28)">
        <g transform="matrix(50,0,0,50,1488.63,584.182)">
        </g>
        <text x="1460.82px" y="584.182px" style="font-family:'ArialMT', 'Arial', sans-serif;font-size:50px;fill:rgb(35,31,32);">θ</text>
    </g>
    <g transform="matrix(1,0,0,1,456.982,1325.3)">
        <g transform="matrix(50,0,0,50,1488.63,584.182)">
        </g>
        <text x="1460.82px" y="584.182px" style="font-family:'ArialMT', 'Arial', sans-serif;font-size:50px;fill:rgb(35,31,32);">θ</text>
    </g>
</svg>
