<?xml version="1.0" encoding="UTF-8" standalone="no"?>
<!DOCTYPE svg PUBLIC "-//W3C//DTD SVG 1.1//EN" "http://www.w3.org/Graphics/SVG/1.1/DTD/svg11.dtd">
<svg width="100%" height="100%" viewBox="0 0 2845 2507" version="1.1" xmlns="http://www.w3.org/2000/svg" xmlns:xlink="http://www.w3.org/1999/xlink" xml:space="preserve" xmlns:serif="http://www.serif.com/" style="fill-rule:evenodd;clip-rule:evenodd;stroke-linejoin:round;stroke-miterlimit:2;">
    <g id="path54" transform="matrix(0.355556,0,0,-0.355556,0,2506.35)">
        <path d="M5274.41,4721.61C5273.7,4707.79 5261.31,4697.2 5246.72,4697.94C5232.14,4698.68 5220.89,4710.49 5221.59,4724.31C5222.3,4738.13 5234.69,4748.72 5249.28,4747.98C5263.86,4747.24 5275.11,4735.43 5274.41,4721.61" style="fill:white;fill-rule:nonzero;"/>
    </g>
    <g id="g10" transform="matrix(0.355556,0,0,-0.355556,0,2506.35)">
        <g id="ink_ext_XXXXXX">
            <path id="g101" serif:id="g10" d="M8017.04,7068.44L8017.04,-10.941L-6.422,-10.941L-6.422,7068.44L8017.04,7068.44ZM5348.15,4686.46C5350.24,4727.41 5316.89,4762.4 5273.67,4764.61C5230.44,4766.81 5193.71,4735.4 5191.61,4694.45C5189.52,4653.5 5222.87,4618.51 5266.1,4616.3C5309.32,4614.1 5346.06,4645.51 5348.15,4686.46ZM4233.17,4672.76C4637.21,4952.93 5009.6,4932.91 5208.49,4871.25C5365.46,4822.59 5462.78,4707.6 5475,4585.17C5489.55,4439.36 5333.33,4313.5 5248,4286.83C4908.28,4180.67 4858.53,3977.21 4715,3742.67C4612.5,3575.17 4390,3524.54 4047.55,3387.73C3680.08,3240.92 3670,3040.85 3670,3040.85C3751.5,3287.67 4136.26,3356.95 4429.11,3438.41C4926.66,3576.83 4844.2,3908.72 5040,4100.17C5233.13,4289.01 5643.44,4355.07 5952.26,4376.85C6429.37,4410.5 6853.5,4149.05 6853.5,4149.05C6552,4494.02 6062.19,4536.04 5901.06,4552.5C5594.01,4583.87 5650.08,4759.78 5370.14,4923.16C4826.73,5240.32 4233.17,4672.76 4233.17,4672.76ZM3751.21,2583.82C3681.52,2879 3459.11,3344.07 3605.84,3764.69C3605.84,3764.69 3426.96,3521.51 3528.01,2999.93C3621.05,2519.71 3456.8,2454.86 3456.8,2454.86C3158.59,2841.51 3312.63,3889.27 3312.63,3889.27C3312.63,3889.27 2893.81,2435.26 3443.58,1713.44C3443.58,1713.44 3867.84,2089.79 3751.21,2583.82ZM3469.19,2004.33C3235.67,2246.43 3225.79,2770.07 3225.79,2770.07C3268.62,2350.44 3490.01,2207.29 3490.01,2207.29C3670.72,2365.47 3677.22,2595.32 3677.22,2595.32C3712.3,2236.22 3469.19,2004.33 3469.19,2004.33ZM3263.3,3884.76C3099.44,3965.27 2815.89,4188.08 2336.54,4653.42C2336.54,4653.42 2387.02,4662.6 2477.85,4664.47C2432.49,4692.73 2383.71,4722.25 2331.06,4753.19C2153.53,4748.57 2049.27,4724.46 2049.27,4724.46C2366.03,4551.42 2696,4250.87 2696,4250.87C2326.58,4531.46 1656.79,4774.73 1656.79,4774.73C1860.05,4809.32 2071.67,4809.78 2255.08,4797.29C2231.22,4810.99 2206.74,4824.91 2181.43,4839.14C2154.55,4854.26 2123.03,4870.57 2088.4,4887.58C1795.06,4896 1487.38,4870.91 1255.04,4782.33C1255.04,4782.33 1800.89,4631.27 2026.98,4532.53C2697.14,4239.84 3012.96,3970.84 3263.3,3884.76ZM2594.59,5068.49C2594.59,5068.49 3403.58,5125.56 4407.55,4399.47C4407.55,4399.47 4020.12,4905.76 3234.61,5184.99C2768.27,5350.76 1777.3,5548.62 1141.31,5387.53C1141.31,5387.53 1696.41,5175.68 2023.89,5014.8C2066.86,4993.69 2105.97,4973.45 2139.33,4954.69C2170.73,4937.04 2201.11,4919.76 2230.72,4902.77C2263.16,4884.15 2294.64,4865.89 2325,4848.04C2390.33,4809.64 2450.86,4773.01 2507.15,4737.95C3038.85,4406.68 3141.94,4190.85 3264.69,4044.53C3451.55,3821.8 3678.69,3820.87 3953.3,3878.6C3953.3,3878.6 3521.35,3800.52 3324.02,4147.05C2904.38,4884 2594.59,5068.49 2594.59,5068.49ZM2903.87,4610.94C2860.05,4651 2813.27,4689.92 2764.55,4727.58C2713.45,4767.06 2660.2,4805.13 2605.91,4841.61C2593.27,4850.11 2580.58,4858.53 2567.84,4866.85C2498.97,4911.83 2428.89,4954.21 2359.81,4993.66C2005.7,5195.88 1678.05,5320.89 1678.05,5320.89C2396.88,5362.67 3158.95,5098.69 3158.95,5098.69C2589.19,5245.85 2196.33,5200.27 2196.33,5200.27C2314.36,5131.21 2423.41,5052.58 2518.87,4975.74C2571.63,4933.28 2620.17,4891.42 2663.76,4851.98C2669.91,4846.41 2676.03,4840.87 2681.98,4835.4C2726.58,4794.47 2765.38,4756.7 2797.61,4724.19C2865.38,4655.82 2903.87,4610.94 2903.87,4610.94ZM4317.84,4312.64C4317.84,4312.64 3740.48,4751.06 3158.69,4792.15C3158.69,4792.15 3270.9,4206.61 4020.07,4010.15C4020.07,4010.15 3479.86,4209.53 3329.63,4656.54C3329.63,4656.54 3743.03,4661.37 4317.84,4312.64Z"/>
        </g>
    </g>
</svg>
