<?xml version="1.0" encoding="UTF-8" standalone="no"?><!DOCTYPE svg PUBLIC "-//W3C//DTD SVG 1.1//EN" "http://www.w3.org/Graphics/SVG/1.1/DTD/svg11.dtd"><svg width="100%" height="100%" viewBox="0 0 4000 4000" version="1.1" xmlns="http://www.w3.org/2000/svg" xmlns:xlink="http://www.w3.org/1999/xlink" xml:space="preserve" xmlns:serif="http://www.serif.com/" style="fill-rule:evenodd;clip-rule:evenodd;stroke-linejoin:round;stroke-miterlimit:2;"><path id="path54" d="M2783.06,1341.05c-0.434,8.447 -8.007,14.919 -16.924,14.467c-8.911,-0.452 -15.787,-7.671 -15.36,-16.117c0.434,-8.447 8.007,-14.919 16.924,-14.467c8.911,0.452 15.787,7.67 15.36,16.117" style="fill:#fff;fill-rule:nonzero;"/><g id="ink_ext_XXXXXX"><path id="g10" d="M4459.32,-93.313l-0,4326.85l-4903.86,0l-0,-4326.85l4903.86,-0Zm-1631.2,1455.84c1.277,-25.028 -19.106,-46.413 -45.522,-47.764c-26.421,-1.345 -48.87,17.853 -50.154,42.881c-1.277,25.028 19.106,46.414 45.528,47.764c26.415,1.345 48.87,-17.852 50.148,-42.881Zm-681.465,8.374c246.945,-171.237 474.546,-159.001 596.106,-121.315c95.938,29.74 155.419,100.021 162.888,174.849c8.893,89.117 -86.587,166.042 -138.74,182.342c-207.633,64.884 -238.04,189.237 -325.764,332.585c-62.647,102.375 -198.637,133.319 -407.939,216.936c-224.594,89.729 -230.755,212.01 -230.755,212.01c49.812,-150.854 284.974,-193.197 463.961,-242.985c304.097,-84.601 253.698,-287.449 373.369,-404.461c118.04,-115.417 368.817,-155.792 557.565,-169.104c291.605,-20.567 550.829,139.229 550.829,139.229c-184.274,-210.842 -483.641,-236.524 -582.122,-246.585c-187.666,-19.173 -153.397,-126.687 -324.493,-226.543c-332.127,-193.845 -694.905,153.042 -694.905,153.042Zm-294.569,1276.74c-42.594,-180.411 -178.529,-464.657 -88.849,-721.736c0,-0 -109.329,148.629 -47.569,467.414c56.865,293.505 -43.523,333.141 -43.523,333.141c-182.263,-236.317 -88.115,-876.697 -88.115,-876.697c0,-0 -255.978,888.676 80.035,1329.85c0,-0 259.304,-230.022 188.021,-531.968Zm-172.368,354.178c-142.725,-147.969 -148.764,-468.012 -148.764,-468.012c26.178,256.473 161.489,343.965 161.489,343.965c110.448,-96.678 114.421,-237.16 114.421,-237.16c21.44,219.479 -127.146,361.207 -127.146,361.207Zm-125.838,-1149.3c-100.149,-49.207 -273.452,-185.386 -566.426,-469.797c-0,0 30.853,-5.611 86.367,-6.754c-27.724,-17.272 -57.538,-35.314 -89.717,-54.224c-108.504,2.823 -172.227,17.559 -172.227,17.559c193.601,105.76 395.275,289.454 395.275,289.454c-225.786,-171.494 -635.155,-320.178 -635.155,-320.178c124.231,-21.141 253.571,-21.423 365.669,-13.789c-14.583,-8.373 -29.545,-16.881 -45.014,-25.578c-16.429,-9.241 -35.694,-19.21 -56.859,-29.606c-179.287,-5.146 -367.337,10.188 -509.341,64.328c-0,-0 333.618,92.326 471.802,152.675c409.595,178.889 602.621,343.299 755.626,395.91Zm-408.709,-723.484c0,0 494.447,-34.88 1108.06,408.899c0,-0 -236.793,-309.44 -716.889,-480.102c-285.022,-101.317 -890.693,-222.247 -1279.4,-123.791c-0,0 339.272,129.481 539.424,227.809c26.263,12.902 50.167,25.273 70.556,36.739c19.191,10.787 37.759,21.349 55.857,31.733c19.827,11.38 39.067,22.541 57.623,33.45c39.929,23.47 76.924,45.858 111.328,67.286c324.97,202.469 387.977,334.382 463.001,423.812c114.207,136.13 253.032,136.698 420.871,101.414c0,0 -264.003,47.722 -384.609,-164.074c-256.48,-450.416 -445.821,-563.175 -445.821,-563.175Zm189.029,279.65c-26.782,-24.484 -55.374,-48.271 -85.151,-71.289c-31.232,-24.13 -63.778,-47.398 -96.959,-69.694c-7.726,-5.195 -15.482,-10.341 -23.268,-15.426c-42.093,-27.492 -84.925,-53.394 -127.146,-77.505c-216.428,-123.595 -416.685,-200 -416.685,-200c439.342,-25.535 905.111,135.806 905.111,135.806c-348.231,-89.942 -588.343,-62.084 -588.343,-62.084c72.138,42.209 138.789,90.266 197.133,137.23c32.246,25.951 61.913,51.536 88.555,75.641c3.759,3.404 7.5,6.79 11.136,10.134c27.259,25.016 50.973,48.1 70.672,67.97c41.42,41.787 64.945,69.217 64.945,69.217Zm864.204,182.318c0,0 -352.876,-267.958 -708.46,-293.071c-0,-0 68.581,357.876 526.466,477.95c0,0 -330.171,-121.859 -421.99,-395.067c0,0 252.666,-2.952 603.984,210.188Z" style="fill:#141414;"/></g></svg>