<?xml version="1.0" encoding="UTF-8" standalone="no"?>
<!DOCTYPE svg PUBLIC "-//W3C//DTD SVG 1.1//EN" "http://www.w3.org/Graphics/SVG/1.1/DTD/svg11.dtd">
<svg width="100%" height="100%" viewBox="0 0 46875 6250" version="1.1" xmlns="http://www.w3.org/2000/svg" xmlns:xlink="http://www.w3.org/1999/xlink" xml:space="preserve" xmlns:serif="http://www.serif.com/" style="fill-rule:evenodd;clip-rule:evenodd;stroke-linecap:round;stroke-linejoin:round;stroke-miterlimit:1.5;">
    <g transform="matrix(1.03596,0,0,1,3373.56,1250)">
        <rect x="-78.161" y="-484.301" width="41601.9" height="5407.84" style="fill:url(#_Linear1);"/>
    </g>
    <g transform="matrix(1.09449,0,0,1,6738.24,2250)">
        <clipPath id="_clip2">
            <rect x="-1867.59" y="-1301.96" width="39434.2" height="6948.08"/>
        </clipPath>
        <g clip-path="url(#_clip2)">
            <path d="M37469.1,-1301.96L37469.1,5646.12L-1965.18,5646.12L-1965.18,-1301.96L37469.1,-1301.96ZM1419.7,599.654L730.704,1430L960.367,1706.78L1419.7,1153.22L1419.7,2882.99L1744.49,2882.99L1744.49,599.654L1419.7,599.654ZM2448.22,2882.99L2448.22,599.654L2123.42,599.654L2123.42,2882.99L2448.22,2882.99ZM35823.7,599.654L35498.9,1382.51L35174.1,599.654L34849.3,599.654L35336.5,1773.94L35336.5,2882.99L35661.3,2882.99L35661.3,1773.94L36148.5,599.654L35823.7,599.654ZM3774.47,599.654L3151.94,1757.16L3151.94,599.654L2827.15,599.654L2827.15,2882.99L3151.94,2882.99L3151.94,2410.01L4126.33,599.654L3774.47,599.654ZM3556.41,1898.28L3801.53,2882.99L4126.33,2882.99L3790,1464.3L3556.41,1898.28ZM12767.2,1578.23L12767.2,1904.42L13222,1904.42L13222,2301.98C13100.8,2444.69 12938,2524.47 12768.6,2524.18C12409.8,2524.18 12119,2173.69 12119,1741.32C12119,1308.95 12409.8,958.464 12768.6,958.464C13079.7,958.464 13253.3,1219.38 13267.6,1240.13L13517.1,989.55C13435.7,871.827 13179.8,567.035 12768.6,567.035C12230.5,567.035 11794.2,1092.79 11794.2,1741.32C11794.2,2389.85 12230.5,2915.61 12768.6,2915.61C13282.9,2915.61 13545.9,2449.58 13546.8,2448.14L13546.8,1578.23L12767.2,1578.23ZM14682.2,599.654L14330.3,599.654L13721.3,2882.99L14073.2,2882.99L14506.2,1259.28L14939.3,2882.99L15291.2,2882.99L14682.2,599.654ZM15843.3,2556.8L15843.3,599.654L15518.5,599.654L15518.5,2882.99L16547,2882.99L16547,2556.8L15843.3,2556.8ZM18390.3,599.654L17605.3,599.654L17605.3,2882.99L17930.1,2882.99L17930.1,2132.75L18390.3,2132.75C18635,2132.75 18958.7,1870.17 18958.7,1366.2C18958.7,878.547 18654,599.654 18390.3,599.654ZM18390.3,1806.56L17930.1,1806.56L17930.1,925.845L18390.3,925.845C18524.8,925.845 18633.9,1122.99 18633.9,1366.2C18633.9,1609.41 18524.8,1806.56 18390.3,1806.56ZM19554.1,599.654L19229.3,599.654L19229.3,2882.99L19554.1,2882.99L19554.1,1904.42L20095.4,1904.42L20095.4,1578.23L19554.1,1578.23L19554.1,599.654ZM20528.5,2882.99L20528.5,599.654L20203.7,599.654L20203.7,2882.99L20528.5,2882.99ZM21792.5,567.035C21254.4,567.035 20818.1,1092.78 20818.1,1741.32C20818.1,2389.86 21254.4,2915.61 21792.5,2915.61C22330.6,2915.61 22766.9,2389.86 22766.9,1741.32C22766.9,1092.78 22330.6,567.035 21792.5,567.035ZM21792.5,2524.18C21433.7,2524.18 21142.9,2173.68 21142.9,1741.32C21142.9,1308.96 21433.7,958.464 21792.5,958.464C22151.3,958.464 22442.1,1308.96 22442.1,1741.32C22442.1,2173.68 22151.3,2524.18 21792.5,2524.18ZM22810.2,599.654L22810.2,925.845L23297.4,925.845L23297.4,2882.99L23622.2,2882.99L23622.2,925.845L24109.4,925.845L24109.4,599.654L22810.2,599.654ZM25127.1,567.035C24588.9,567.035 24152.7,1092.78 24152.7,1741.32C24152.7,2389.86 24588.9,2915.61 25127.1,2915.61C25665.2,2915.61 26101.4,2389.86 26101.4,1741.32C26101.4,1092.78 25665.2,567.035 25127.1,567.035ZM25127.1,2524.18C24768.3,2524.18 24477.5,2173.68 24477.5,1741.32C24477.5,1308.96 24768.3,958.464 25127.1,958.464C25485.8,958.464 25776.7,1308.96 25776.7,1741.32C25776.7,2173.68 25485.8,2524.18 25127.1,2524.18ZM27274.8,1578.23L27274.8,1904.42L27729.5,1904.42L27729.5,2301.98C27608.3,2444.69 27445.6,2524.47 27276.1,2524.18C26917.4,2524.18 26626.5,2173.69 26626.5,1741.32C26626.5,1308.95 26917.4,958.464 27276.1,958.464C27587.2,958.464 27760.8,1219.38 27775.2,1240.13L28024.7,989.55C27943.2,871.827 27687.4,567.035 27276.1,567.035C26738,567.035 26301.7,1092.79 26301.7,1741.32C26301.7,2389.85 26738,2915.61 27276.1,2915.61C27790.4,2915.61 28053.4,2449.58 28054.3,2448.14L28054.3,1578.23L27274.8,1578.23ZM29524.7,1960.16C29565,1915.77 29733.7,1707.07 29733.7,1366.2C29733.7,898.118 29445.3,599.654 29165.4,599.654L28380.4,599.654L28380.4,2882.99L28705.2,2882.99L28705.2,2132.75L29165.4,2132.75C29183.9,2132.75 29202.5,2131.53 29221,2129.11L29436,2882.99L29787.9,2882.99L29524.7,1960.16ZM29165.4,1806.56L28705.2,1806.56L28705.2,925.845L29165.4,925.845C29299.9,925.845 29408.9,1122.99 29408.9,1366.2C29408.9,1609.41 29299.9,1806.56 29165.4,1806.56ZM30886.8,599.654L30534.9,599.654L29925.9,2882.99L30277.8,2882.99L30710.8,1259.28L31143.9,2882.99L31495.8,2882.99L30886.8,599.654ZM32508,599.654L31723.1,599.654L31723.1,2882.99L32047.9,2882.99L32047.9,2132.75L32508,2132.75C32752.8,2132.75 33076.4,1870.17 33076.4,1366.2C33076.4,878.547 32771.8,599.654 32508,599.654ZM32508,1806.56L32047.9,1806.56L32047.9,925.845L32508,925.845C32642.6,925.845 32751.6,1122.99 32751.6,1366.2C32751.6,1609.41 32642.6,1806.56 32508,1806.56ZM33671.9,599.654L33347.1,599.654L33347.1,2882.99L33671.9,2882.99L33671.9,1904.42L34213.2,1904.42L34213.2,1578.23L33671.9,1578.23L33671.9,599.654ZM34646.3,2882.99L34646.3,599.654L34321.5,599.654L34321.5,2882.99L34646.3,2882.99ZM5528.36,599.654L4391.58,599.654L4391.58,2882.99L5528.36,2882.99L5528.36,2556.8L4716.37,2556.8L4716.37,925.845L5528.36,925.845L5528.36,599.654ZM5284.77,1904.42L5284.77,1578.23L4824.64,1578.23L4824.64,1904.42L5284.77,1904.42ZM7533.97,2524.18C7175.21,2524.18 6884.38,2173.69 6884.38,1741.32C6884.38,1308.95 7175.21,958.464 7533.97,958.464C7726.81,958.225 7909.71,1061.46 8033.02,1240.13L8282.52,989.55C8097.57,721.536 7823.22,566.675 7533.97,567.035C6995.84,567.035 6559.59,1092.79 6559.59,1741.32C6559.59,2389.85 6995.84,2915.61 7533.97,2915.61C7823.22,2915.97 8097.57,2761.11 8282.52,2493.09L8033.02,2242.51C7909.71,2421.18 7726.81,2524.42 7533.97,2524.18ZM9350.12,599.654L8998.26,599.654L8389.27,2882.99L8741.13,2882.99L9174.19,1259.28L9607.25,2882.99L9959.11,2882.99L9350.12,599.654ZM11330.7,1960.16C11371,1915.77 11539.8,1707.07 11539.8,1366.2C11539.8,898.118 11251.4,599.654 10971.4,599.654L10186.5,599.654L10186.5,2882.99L10511.3,2882.99L10511.3,2132.75L10971.4,2132.75C10990,2132.75 11008.5,2131.53 11027,2129.11L11242.1,2882.99L11593.9,2882.99L11330.7,1960.16ZM10971.4,1806.56L10511.3,1806.56L10511.3,925.845L10971.4,925.845C11105.9,925.845 11215,1122.99 11215,1366.2C11215,1609.41 11105.9,1806.56 10971.4,1806.56ZM499.445,599.654L174.649,599.654L174.649,2882.99L499.445,2882.99L499.445,1153.22L652.927,1338.18L882.592,1061.4L499.445,599.654Z" style="fill:rgb(20,20,20);"/>
            <clipPath id="_clip3">
                <path d="M37469.1,-1301.96L37469.1,5646.12L-1965.18,5646.12L-1965.18,-1301.96L37469.1,-1301.96ZM1419.7,599.654L730.704,1430L960.367,1706.78L1419.7,1153.22L1419.7,2882.99L1744.49,2882.99L1744.49,599.654L1419.7,599.654ZM2448.22,2882.99L2448.22,599.654L2123.42,599.654L2123.42,2882.99L2448.22,2882.99ZM35823.7,599.654L35498.9,1382.51L35174.1,599.654L34849.3,599.654L35336.5,1773.94L35336.5,2882.99L35661.3,2882.99L35661.3,1773.94L36148.5,599.654L35823.7,599.654ZM3774.47,599.654L3151.94,1757.16L3151.94,599.654L2827.15,599.654L2827.15,2882.99L3151.94,2882.99L3151.94,2410.01L4126.33,599.654L3774.47,599.654ZM3556.41,1898.28L3801.53,2882.99L4126.33,2882.99L3790,1464.3L3556.41,1898.28ZM12767.2,1578.23L12767.2,1904.42L13222,1904.42L13222,2301.98C13100.8,2444.69 12938,2524.47 12768.6,2524.18C12409.8,2524.18 12119,2173.69 12119,1741.32C12119,1308.95 12409.8,958.464 12768.6,958.464C13079.7,958.464 13253.3,1219.38 13267.6,1240.13L13517.1,989.55C13435.7,871.827 13179.8,567.035 12768.6,567.035C12230.5,567.035 11794.2,1092.79 11794.2,1741.32C11794.2,2389.85 12230.5,2915.61 12768.6,2915.61C13282.9,2915.61 13545.9,2449.58 13546.8,2448.14L13546.8,1578.23L12767.2,1578.23ZM14682.2,599.654L14330.3,599.654L13721.3,2882.99L14073.2,2882.99L14506.2,1259.28L14939.3,2882.99L15291.2,2882.99L14682.2,599.654ZM15843.3,2556.8L15843.3,599.654L15518.5,599.654L15518.5,2882.99L16547,2882.99L16547,2556.8L15843.3,2556.8ZM18390.3,599.654L17605.3,599.654L17605.3,2882.99L17930.1,2882.99L17930.1,2132.75L18390.3,2132.75C18635,2132.75 18958.7,1870.17 18958.7,1366.2C18958.7,878.547 18654,599.654 18390.3,599.654ZM18390.3,1806.56L17930.1,1806.56L17930.1,925.845L18390.3,925.845C18524.8,925.845 18633.9,1122.99 18633.9,1366.2C18633.9,1609.41 18524.8,1806.56 18390.3,1806.56ZM19554.1,599.654L19229.3,599.654L19229.3,2882.99L19554.1,2882.99L19554.1,1904.42L20095.4,1904.42L20095.4,1578.23L19554.1,1578.23L19554.1,599.654ZM20528.5,2882.99L20528.5,599.654L20203.7,599.654L20203.7,2882.99L20528.5,2882.99ZM21792.5,567.035C21254.4,567.035 20818.1,1092.78 20818.1,1741.32C20818.1,2389.86 21254.4,2915.61 21792.5,2915.61C22330.6,2915.61 22766.9,2389.86 22766.9,1741.32C22766.9,1092.78 22330.6,567.035 21792.5,567.035ZM21792.5,2524.18C21433.7,2524.18 21142.9,2173.68 21142.9,1741.32C21142.9,1308.96 21433.7,958.464 21792.5,958.464C22151.3,958.464 22442.1,1308.96 22442.1,1741.32C22442.1,2173.68 22151.3,2524.18 21792.5,2524.18ZM22810.2,599.654L22810.2,925.845L23297.4,925.845L23297.4,2882.99L23622.2,2882.99L23622.2,925.845L24109.4,925.845L24109.4,599.654L22810.2,599.654ZM25127.1,567.035C24588.9,567.035 24152.7,1092.78 24152.7,1741.32C24152.7,2389.86 24588.9,2915.61 25127.1,2915.61C25665.2,2915.61 26101.4,2389.86 26101.4,1741.32C26101.4,1092.78 25665.2,567.035 25127.1,567.035ZM25127.1,2524.18C24768.3,2524.18 24477.5,2173.68 24477.5,1741.32C24477.5,1308.96 24768.3,958.464 25127.1,958.464C25485.8,958.464 25776.7,1308.96 25776.7,1741.32C25776.7,2173.68 25485.8,2524.18 25127.1,2524.18ZM27274.8,1578.23L27274.8,1904.42L27729.5,1904.42L27729.5,2301.98C27608.3,2444.69 27445.6,2524.47 27276.1,2524.18C26917.4,2524.18 26626.5,2173.69 26626.5,1741.32C26626.5,1308.95 26917.4,958.464 27276.1,958.464C27587.2,958.464 27760.8,1219.38 27775.2,1240.13L28024.7,989.55C27943.2,871.827 27687.4,567.035 27276.1,567.035C26738,567.035 26301.7,1092.79 26301.7,1741.32C26301.7,2389.85 26738,2915.61 27276.1,2915.61C27790.4,2915.61 28053.4,2449.58 28054.3,2448.14L28054.3,1578.23L27274.8,1578.23ZM29524.7,1960.16C29565,1915.77 29733.7,1707.07 29733.7,1366.2C29733.7,898.118 29445.3,599.654 29165.4,599.654L28380.4,599.654L28380.4,2882.99L28705.2,2882.99L28705.2,2132.75L29165.4,2132.75C29183.9,2132.75 29202.5,2131.53 29221,2129.11L29436,2882.99L29787.9,2882.99L29524.7,1960.16ZM29165.4,1806.56L28705.2,1806.56L28705.2,925.845L29165.4,925.845C29299.9,925.845 29408.9,1122.99 29408.9,1366.2C29408.9,1609.41 29299.9,1806.56 29165.4,1806.56ZM30886.8,599.654L30534.9,599.654L29925.9,2882.99L30277.8,2882.99L30710.8,1259.28L31143.9,2882.99L31495.8,2882.99L30886.8,599.654ZM32508,599.654L31723.1,599.654L31723.1,2882.99L32047.9,2882.99L32047.9,2132.75L32508,2132.75C32752.8,2132.75 33076.4,1870.17 33076.4,1366.2C33076.4,878.547 32771.8,599.654 32508,599.654ZM32508,1806.56L32047.9,1806.56L32047.9,925.845L32508,925.845C32642.6,925.845 32751.6,1122.99 32751.6,1366.2C32751.6,1609.41 32642.6,1806.56 32508,1806.56ZM33671.9,599.654L33347.1,599.654L33347.1,2882.99L33671.9,2882.99L33671.9,1904.42L34213.2,1904.42L34213.2,1578.23L33671.9,1578.23L33671.9,599.654ZM34646.3,2882.99L34646.3,599.654L34321.5,599.654L34321.5,2882.99L34646.3,2882.99ZM5528.36,599.654L4391.58,599.654L4391.58,2882.99L5528.36,2882.99L5528.36,2556.8L4716.37,2556.8L4716.37,925.845L5528.36,925.845L5528.36,599.654ZM5284.77,1904.42L5284.77,1578.23L4824.64,1578.23L4824.64,1904.42L5284.77,1904.42ZM7533.97,2524.18C7175.21,2524.18 6884.38,2173.69 6884.38,1741.32C6884.38,1308.95 7175.21,958.464 7533.97,958.464C7726.81,958.225 7909.71,1061.46 8033.02,1240.13L8282.52,989.55C8097.57,721.536 7823.22,566.675 7533.97,567.035C6995.84,567.035 6559.59,1092.79 6559.59,1741.32C6559.59,2389.85 6995.84,2915.61 7533.97,2915.61C7823.22,2915.97 8097.57,2761.11 8282.52,2493.09L8033.02,2242.51C7909.71,2421.18 7726.81,2524.42 7533.97,2524.18ZM9350.12,599.654L8998.26,599.654L8389.27,2882.99L8741.13,2882.99L9174.19,1259.28L9607.25,2882.99L9959.11,2882.99L9350.12,599.654ZM11330.7,1960.16C11371,1915.77 11539.8,1707.07 11539.8,1366.2C11539.8,898.118 11251.4,599.654 10971.4,599.654L10186.5,599.654L10186.5,2882.99L10511.3,2882.99L10511.3,2132.75L10971.4,2132.75C10990,2132.75 11008.5,2131.53 11027,2129.11L11242.1,2882.99L11593.9,2882.99L11330.7,1960.16ZM10971.4,1806.56L10511.3,1806.56L10511.3,925.845L10971.4,925.845C11105.9,925.845 11215,1122.99 11215,1366.2C11215,1609.41 11105.9,1806.56 10971.4,1806.56ZM499.445,599.654L174.649,599.654L174.649,2882.99L499.445,2882.99L499.445,1153.22L652.927,1338.18L882.592,1061.4L499.445,599.654Z"/>
            </clipPath>
            <g clip-path="url(#_clip3)">
                <g transform="matrix(0.918257,0,0,1,-9343.21,-1000)">
                    <path d="M50979.5,-301.961L50979.5,6646.12L8034.82,6646.12L8034.82,-301.961L50979.5,-301.961ZM15930.2,2904.42L15930.2,2578.22L15429.1,2578.22L15429.1,2904.42L15930.2,2904.42ZM18379.6,3524.18C17988.9,3524.18 17672.2,3173.69 17672.2,2741.32C17672.2,2308.95 17988.9,1958.46 18379.6,1958.46C18589.6,1958.23 18788.8,2061.46 18923.1,2240.13L19194.8,1989.55C18993.4,1721.54 18694.6,1566.67 18379.6,1567.04C17793.5,1567.04 17318.5,2092.79 17318.5,2741.32C17318.5,3389.85 17793.5,3915.61 18379.6,3915.61C18694.6,3915.97 18993.4,3761.11 19194.8,3493.09L18923.1,3242.51C18788.8,3421.18 18589.6,3524.42 18379.6,3524.18ZM20357.4,1599.65L19974.2,1599.65L19311,3882.99L19694.2,3882.99L20165.8,2259.28L20637.4,3882.99L21020.6,3882.99L20357.4,1599.65ZM32530.9,3882.99L32530.9,1599.65L32177.2,1599.65L32177.2,3882.99L32530.9,3882.99ZM33907.4,1567.04C33321.3,1567.04 32846.3,2092.78 32846.3,2741.32C32846.3,3389.86 33321.3,3915.61 33907.4,3915.61C34493.4,3915.61 34968.5,3389.86 34968.5,2741.32C34968.5,2092.78 34493.4,1567.04 33907.4,1567.04ZM42327.9,2960.16C42371.8,2915.77 42555.6,2707.07 42555.6,2366.2C42555.6,1898.12 42241.5,1599.65 41936.6,1599.65L41081.8,1599.65L41081.8,3882.99L41435.5,3882.99L41435.5,3132.75L41936.6,3132.75C41956.8,3132.75 41977,3131.53 41997.2,3129.11L42231.3,3882.99L42614.5,3882.99L42327.9,2960.16ZM37538.8,1567.04C36952.8,1567.04 36477.7,2092.78 36477.7,2741.32C36477.7,3389.86 36952.8,3915.61 37538.8,3915.61C38124.8,3915.61 38599.9,3389.86 38599.9,2741.32C38599.9,2092.78 38124.8,1567.04 37538.8,1567.04ZM16195.4,1599.65L14957.5,1599.65L14957.5,3882.99L16195.4,3882.99L16195.4,3556.8L15311.2,3556.8L15311.2,1925.85L16195.4,1925.85L16195.4,1599.65ZM14047.9,2898.28L14314.9,3882.99L14668.6,3882.99L14302.3,2464.3L14047.9,2898.28ZM47905.4,3882.99L47905.4,1599.65L47551.7,1599.65L47551.7,3882.99L47905.4,3882.99ZM49187.6,1599.65L48833.9,2382.51L48480.2,1599.65L48126.5,1599.65L48657,2773.94L48657,3882.99L49010.7,3882.99L49010.7,2773.94L49541.3,1599.65L49187.6,1599.65ZM24078.7,2578.22L24078.7,2904.42L24573.9,2904.42L24573.9,3301.98C24442,3444.69 24264.7,3524.47 24080.2,3524.18C23689.5,3524.18 23372.8,3173.69 23372.8,2741.32C23372.8,2308.95 23689.5,1958.46 24080.2,1958.46C24419,1958.46 24608,2219.38 24623.7,2240.13L24895.4,1989.55C24806.6,1871.83 24528,1567.04 24080.2,1567.04C23494.2,1567.04 23019.1,2092.79 23019.1,2741.32C23019.1,3389.85 23494.2,3915.61 24080.2,3915.61C24640.2,3915.61 24926.7,3449.58 24927.6,3448.14L24927.6,2578.23L24078.7,2578.22ZM14285.4,1599.65L13607.5,2757.16L13607.5,1599.65L13253.8,1599.65L13253.8,3882.99L13607.5,3882.99L13607.5,3410.01L14668.6,1599.65L14285.4,1599.65ZM39877.7,2578.22L39877.7,2904.42L40372.9,2904.42L40372.9,3301.98C40240.9,3444.69 40063.7,3524.47 39879.2,3524.18C39488.5,3524.18 39171.8,3173.69 39171.8,2741.32C39171.8,2308.95 39488.5,1958.46 39879.2,1958.46C40218,1958.46 40407,2219.38 40422.6,2240.13L40694.4,1989.55C40605.6,1871.83 40327,1567.04 39879.2,1567.04C39293.1,1567.04 38818,2092.79 38818,2741.32C38818,3389.85 39293.1,3915.61 39879.2,3915.61C40439.2,3915.61 40725.7,3449.58 40726.6,3448.14L40726.6,2578.23L39877.7,2578.22ZM31469.8,1599.65L31116,1599.65L31116,3882.99L31469.8,3882.99L31469.8,2904.42L32059.3,2904.42L32059.3,2578.22L31469.8,2578.22L31469.8,1599.65ZM26164.1,1599.65L25780.9,1599.65L25117.7,3882.99L25500.9,3882.99L25972.5,2259.28L26444.1,3882.99L26827.3,3882.99L26164.1,1599.65ZM43811.2,1599.65L43428,1599.65L42764.8,3882.99L43148,3882.99L43619.6,2259.28L44091.3,3882.99L44474.4,3882.99L43811.2,1599.65ZM10718.8,1599.65L10365.1,1599.65L10365.1,3882.99L10718.8,3882.99L10718.8,2153.22L10886,2338.18L11136.1,2061.4L10718.8,1599.65ZM30202.3,1599.65L29347.5,1599.65L29347.5,3882.99L29701.2,3882.99L29701.2,3132.75L30202.3,3132.75C30468.9,3132.75 30821.3,2870.17 30821.3,2366.2C30821.3,1878.55 30489.5,1599.65 30202.3,1599.65ZM27428.6,3556.8L27428.6,1599.65L27074.9,1599.65L27074.9,3882.99L28195,3882.99L28195,3556.8L27428.6,3556.8ZM22514.3,2960.16C22558.2,2915.77 22742,2707.07 22742,2366.2C22742,1898.12 22427.9,1599.65 22123,1599.65L21268.2,1599.65L21268.2,3882.99L21621.9,3882.99L21621.9,3132.75L22123,3132.75C22143.2,3132.75 22163.5,3131.53 22183.6,3129.11L22417.8,3882.99L22800.9,3882.99L22514.3,2960.16ZM46844.3,1599.65L46490.6,1599.65L46490.6,3882.99L46844.3,3882.99L46844.3,2904.42L47433.8,2904.42L47433.8,2578.22L46844.3,2578.22L46844.3,1599.65ZM12841.1,3882.99L12841.1,1599.65L12487.4,1599.65L12487.4,3882.99L12841.1,3882.99ZM35015.7,1599.65L35015.7,1925.85L35546.2,1925.85L35546.2,3882.99L35900,3882.99L35900,1925.85L36430.5,1925.85L36430.5,1599.65L35015.7,1599.65ZM11721,1599.65L10970.7,2430L11220.8,2706.78L11721,2153.22L11721,3882.99L12074.7,3882.99L12074.7,1599.65L11721,1599.65ZM45576.8,1599.65L44722,1599.65L44722,3882.99L45075.7,3882.99L45075.7,3132.75L45576.8,3132.75C45843.4,3132.75 46195.8,2870.17 46195.8,2366.2C46195.8,1878.55 45864,1599.65 45576.8,1599.65Z" style="fill:rgb(20,20,20);"/>
                </g>
                <g transform="matrix(0.918257,0,0,1,-9343.21,-1000)">
                    <path d="M22123,2806.56L21621.9,2806.56L21621.9,1925.85L22123,1925.85C22269.5,1925.85 22388.3,2122.99 22388.3,2366.2C22388.3,2609.41 22269.5,2806.56 22123,2806.56Z" style="fill:rgb(20,20,20);"/>
                </g>
                <g transform="matrix(0.918257,0,0,1,-9343.21,-1000)">
                    <path d="M30202.3,2806.56L29701.2,2806.56L29701.2,1925.85L30202.3,1925.85C30348.8,1925.85 30467.6,2122.99 30467.6,2366.2C30467.6,2609.41 30348.8,2806.56 30202.3,2806.56Z" style="fill:rgb(20,20,20);"/>
                </g>
                <g transform="matrix(0.918257,0,0,1,-9343.21,-1000)">
                    <path d="M33907.4,3524.18C33516.7,3524.18 33200,3173.68 33200,2741.32C33200,2308.96 33516.7,1958.46 33907.4,1958.46C34298.1,1958.46 34614.8,2308.96 34614.8,2741.32C34614.8,3173.68 34298.1,3524.18 33907.4,3524.18Z" style="fill:rgb(20,20,20);"/>
                </g>
                <g transform="matrix(0.918257,0,0,1,-9343.21,-1000)">
                    <path d="M37538.8,3524.18C37148.1,3524.18 36831.4,3173.68 36831.4,2741.32C36831.4,2308.96 37148.1,1958.46 37538.8,1958.46C37929.5,1958.46 38246.2,2308.96 38246.2,2741.32C38246.2,3173.68 37929.5,3524.18 37538.8,3524.18Z" style="fill:rgb(20,20,20);"/>
                </g>
                <g transform="matrix(0.918257,0,0,1,-9343.21,-1000)">
                    <path d="M41936.6,2806.56L41435.5,2806.56L41435.5,1925.85L41936.6,1925.85C42083.1,1925.85 42201.9,2122.99 42201.9,2366.2C42201.9,2609.41 42083.1,2806.56 41936.6,2806.56Z" style="fill:rgb(20,20,20);"/>
                </g>
                <g transform="matrix(0.918257,0,0,1,-9343.21,-1000)">
                    <path d="M45576.8,2806.56L45075.7,2806.56L45075.7,1925.85L45576.8,1925.85C45723.4,1925.85 45842.1,2122.99 45842.1,2366.2C45842.1,2609.41 45723.4,2806.56 45576.8,2806.56Z" style="fill:rgb(20,20,20);"/>
                </g>
            </g>
            <path d="M37469.1,-1301.96L37469.1,5646.12L-1965.18,5646.12L-1965.18,-1301.96L37469.1,-1301.96ZM1419.7,599.654L730.704,1430L960.367,1706.78L1419.7,1153.22L1419.7,2882.99L1744.49,2882.99L1744.49,599.654L1419.7,599.654ZM2448.22,2882.99L2448.22,599.654L2123.42,599.654L2123.42,2882.99L2448.22,2882.99ZM35823.7,599.654L35498.9,1382.51L35174.1,599.654L34849.3,599.654L35336.5,1773.94L35336.5,2882.99L35661.3,2882.99L35661.3,1773.94L36148.5,599.654L35823.7,599.654ZM3774.47,599.654L3151.94,1757.16L3151.94,599.654L2827.15,599.654L2827.15,2882.99L3151.94,2882.99L3151.94,2410.01L4126.33,599.654L3774.47,599.654ZM3556.41,1898.28L3801.53,2882.99L4126.33,2882.99L3790,1464.3L3556.41,1898.28ZM12767.2,1578.23L12767.2,1904.42L13222,1904.42L13222,2301.98C13100.8,2444.69 12938,2524.47 12768.6,2524.18C12409.8,2524.18 12119,2173.69 12119,1741.32C12119,1308.95 12409.8,958.464 12768.6,958.464C13079.7,958.464 13253.3,1219.38 13267.6,1240.13L13517.1,989.55C13435.7,871.827 13179.8,567.035 12768.6,567.035C12230.5,567.035 11794.2,1092.79 11794.2,1741.32C11794.2,2389.85 12230.5,2915.61 12768.6,2915.61C13282.9,2915.61 13545.9,2449.58 13546.8,2448.14L13546.8,1578.23L12767.2,1578.23ZM14682.2,599.654L14330.3,599.654L13721.3,2882.99L14073.2,2882.99L14506.2,1259.28L14939.3,2882.99L15291.2,2882.99L14682.2,599.654ZM15843.3,2556.8L15843.3,599.654L15518.5,599.654L15518.5,2882.99L16547,2882.99L16547,2556.8L15843.3,2556.8ZM18390.3,599.654L17605.3,599.654L17605.3,2882.99L17930.1,2882.99L17930.1,2132.75L18390.3,2132.75C18635,2132.75 18958.7,1870.17 18958.7,1366.2C18958.7,878.547 18654,599.654 18390.3,599.654ZM18390.3,1806.56L17930.1,1806.56L17930.1,925.845L18390.3,925.845C18524.8,925.845 18633.9,1122.99 18633.9,1366.2C18633.9,1609.41 18524.8,1806.56 18390.3,1806.56ZM19554.1,599.654L19229.3,599.654L19229.3,2882.99L19554.1,2882.99L19554.1,1904.42L20095.4,1904.42L20095.4,1578.23L19554.1,1578.23L19554.1,599.654ZM20528.5,2882.99L20528.5,599.654L20203.7,599.654L20203.7,2882.99L20528.5,2882.99ZM21792.5,567.035C21254.4,567.035 20818.1,1092.78 20818.1,1741.32C20818.1,2389.86 21254.4,2915.61 21792.5,2915.61C22330.6,2915.61 22766.9,2389.86 22766.9,1741.32C22766.9,1092.78 22330.6,567.035 21792.5,567.035ZM21792.5,2524.18C21433.7,2524.18 21142.9,2173.68 21142.9,1741.32C21142.9,1308.96 21433.7,958.464 21792.5,958.464C22151.3,958.464 22442.1,1308.96 22442.1,1741.32C22442.1,2173.68 22151.3,2524.18 21792.5,2524.18ZM22810.2,599.654L22810.2,925.845L23297.4,925.845L23297.4,2882.99L23622.2,2882.99L23622.2,925.845L24109.4,925.845L24109.4,599.654L22810.2,599.654ZM25127.1,567.035C24588.9,567.035 24152.7,1092.78 24152.7,1741.32C24152.7,2389.86 24588.9,2915.61 25127.1,2915.61C25665.2,2915.61 26101.4,2389.86 26101.4,1741.32C26101.4,1092.78 25665.2,567.035 25127.1,567.035ZM25127.1,2524.18C24768.3,2524.18 24477.5,2173.68 24477.5,1741.32C24477.5,1308.96 24768.3,958.464 25127.1,958.464C25485.8,958.464 25776.7,1308.96 25776.7,1741.32C25776.7,2173.68 25485.8,2524.18 25127.1,2524.18ZM27274.8,1578.23L27274.8,1904.42L27729.5,1904.42L27729.5,2301.98C27608.3,2444.69 27445.6,2524.47 27276.1,2524.18C26917.4,2524.18 26626.5,2173.69 26626.5,1741.32C26626.5,1308.95 26917.4,958.464 27276.1,958.464C27587.2,958.464 27760.8,1219.38 27775.2,1240.13L28024.7,989.55C27943.2,871.827 27687.4,567.035 27276.1,567.035C26738,567.035 26301.7,1092.79 26301.7,1741.32C26301.7,2389.85 26738,2915.61 27276.1,2915.61C27790.4,2915.61 28053.4,2449.58 28054.3,2448.14L28054.3,1578.23L27274.8,1578.23ZM29524.7,1960.16C29565,1915.77 29733.7,1707.07 29733.7,1366.2C29733.7,898.118 29445.3,599.654 29165.4,599.654L28380.4,599.654L28380.4,2882.99L28705.2,2882.99L28705.2,2132.75L29165.4,2132.75C29183.9,2132.75 29202.5,2131.53 29221,2129.11L29436,2882.99L29787.9,2882.99L29524.7,1960.16ZM29165.4,1806.56L28705.2,1806.56L28705.2,925.845L29165.4,925.845C29299.9,925.845 29408.9,1122.99 29408.9,1366.2C29408.9,1609.41 29299.9,1806.56 29165.4,1806.56ZM30886.8,599.654L30534.9,599.654L29925.9,2882.99L30277.8,2882.99L30710.8,1259.28L31143.9,2882.99L31495.8,2882.99L30886.8,599.654ZM32508,599.654L31723.1,599.654L31723.1,2882.99L32047.9,2882.99L32047.9,2132.75L32508,2132.75C32752.8,2132.75 33076.4,1870.17 33076.4,1366.2C33076.4,878.547 32771.8,599.654 32508,599.654ZM32508,1806.56L32047.9,1806.56L32047.9,925.845L32508,925.845C32642.6,925.845 32751.6,1122.99 32751.6,1366.2C32751.6,1609.41 32642.6,1806.56 32508,1806.56ZM33671.9,599.654L33347.1,599.654L33347.1,2882.99L33671.9,2882.99L33671.9,1904.42L34213.2,1904.42L34213.2,1578.23L33671.9,1578.23L33671.9,599.654ZM34646.3,2882.99L34646.3,599.654L34321.5,599.654L34321.5,2882.99L34646.3,2882.99ZM5528.36,599.654L4391.58,599.654L4391.58,2882.99L5528.36,2882.99L5528.36,2556.8L4716.37,2556.8L4716.37,925.845L5528.36,925.845L5528.36,599.654ZM5284.77,1904.42L5284.77,1578.23L4824.64,1578.23L4824.64,1904.42L5284.77,1904.42ZM7533.97,2524.18C7175.21,2524.18 6884.38,2173.69 6884.38,1741.32C6884.38,1308.95 7175.21,958.464 7533.97,958.464C7726.81,958.225 7909.71,1061.46 8033.02,1240.13L8282.52,989.55C8097.57,721.536 7823.22,566.675 7533.97,567.035C6995.84,567.035 6559.59,1092.79 6559.59,1741.32C6559.59,2389.85 6995.84,2915.61 7533.97,2915.61C7823.22,2915.97 8097.57,2761.11 8282.52,2493.09L8033.02,2242.51C7909.71,2421.18 7726.81,2524.42 7533.97,2524.18ZM9350.12,599.654L8998.26,599.654L8389.27,2882.99L8741.13,2882.99L9174.19,1259.28L9607.25,2882.99L9959.11,2882.99L9350.12,599.654ZM11330.7,1960.16C11371,1915.77 11539.8,1707.07 11539.8,1366.2C11539.8,898.118 11251.4,599.654 10971.4,599.654L10186.5,599.654L10186.5,2882.99L10511.3,2882.99L10511.3,2132.75L10971.4,2132.75C10990,2132.75 11008.5,2131.53 11027,2129.11L11242.1,2882.99L11593.9,2882.99L11330.7,1960.16ZM10971.4,1806.56L10511.3,1806.56L10511.3,925.845L10971.4,925.845C11105.9,925.845 11215,1122.99 11215,1366.2C11215,1609.41 11105.9,1806.56 10971.4,1806.56ZM499.445,599.654L174.649,599.654L174.649,2882.99L499.445,2882.99L499.445,1153.22L652.927,1338.18L882.592,1061.4L499.445,599.654Z" style="fill:none;stroke:black;stroke-width:0.95px;"/>
        </g>
    </g>
    <g transform="matrix(1.17162,0,0,1.59985,-3404.76,-511.793)">
        <rect x="-127.867" y="-187.28" width="8828.95" height="5334.31" style="fill:rgb(20,20,20);"/>
    </g>
    <g transform="matrix(5.31476,0,0,1.59985,931.056,-5659.8)">
        <rect x="-127.867" y="-187.28" width="8828.95" height="5334.31" style="fill:rgb(20,20,20);"/>
    </g>
    <g id="ink_ext_XXXXXX" transform="matrix(14.9815,0,0,-14.9815,-300.409,8280.26)">
        <g>
            <g id="g10" transform="matrix(0.100502,0,0,0.1,-29.0204,0)">
                <path d="M8017.04,7068.44L8017.04,-10.941L-6.422,-10.941L-6.422,7068.44L8017.04,7068.44ZM5348.15,4686.46C5350.24,4727.41 5316.89,4762.4 5273.67,4764.61C5230.44,4766.81 5193.71,4735.4 5191.61,4694.45C5189.52,4653.5 5222.87,4618.51 5266.1,4616.3C5309.32,4614.1 5346.06,4645.51 5348.15,4686.46ZM4233.17,4672.76C4637.21,4952.93 5009.6,4932.91 5208.49,4871.25C5365.46,4822.59 5462.78,4707.6 5475,4585.17C5489.55,4439.36 5333.33,4313.5 5248,4286.83C4908.28,4180.67 4858.53,3977.21 4715,3742.67C4612.5,3575.17 4390,3524.54 4047.55,3387.73C3680.08,3240.92 3670,3040.85 3670,3040.85C3751.5,3287.67 4136.26,3356.95 4429.11,3438.41C4926.66,3576.83 4844.2,3908.72 5040,4100.17C5233.13,4289.01 5643.44,4355.07 5952.26,4376.85C6429.37,4410.5 6853.5,4149.05 6853.5,4149.05C6552,4494.02 6062.19,4536.04 5901.06,4552.5C5594.01,4583.87 5650.08,4759.78 5370.14,4923.16C4826.73,5240.32 4233.17,4672.76 4233.17,4672.76ZM3751.21,2583.82C3681.52,2879 3459.11,3344.07 3605.84,3764.69C3605.84,3764.69 3426.96,3521.51 3528.01,2999.93C3621.05,2519.71 3456.8,2454.86 3456.8,2454.86C3158.59,2841.51 3312.63,3889.27 3312.63,3889.27C3312.63,3889.27 2893.81,2435.26 3443.58,1713.44C3443.58,1713.44 3867.84,2089.79 3751.21,2583.82ZM3469.19,2004.33C3235.67,2246.43 3225.79,2770.07 3225.79,2770.07C3268.62,2350.44 3490.01,2207.29 3490.01,2207.29C3670.72,2365.47 3677.22,2595.32 3677.22,2595.32C3712.3,2236.22 3469.19,2004.33 3469.19,2004.33ZM3263.3,3884.76C3099.44,3965.27 2815.89,4188.08 2336.54,4653.42C2336.54,4653.42 2387.02,4662.6 2477.85,4664.47C2432.49,4692.73 2383.71,4722.25 2331.06,4753.19C2153.53,4748.57 2049.27,4724.46 2049.27,4724.46C2366.03,4551.42 2696,4250.87 2696,4250.87C2326.58,4531.46 1656.79,4774.73 1656.79,4774.73C1860.05,4809.32 2071.67,4809.78 2255.08,4797.29C2231.22,4810.99 2206.74,4824.91 2181.43,4839.14C2154.55,4854.26 2123.03,4870.57 2088.4,4887.58C1795.06,4896 1487.38,4870.91 1255.04,4782.33C1255.04,4782.33 1800.89,4631.27 2026.98,4532.53C2697.14,4239.84 3012.96,3970.84 3263.3,3884.76ZM2594.59,5068.49C2594.59,5068.49 3403.58,5125.56 4407.55,4399.47C4407.55,4399.47 4020.12,4905.76 3234.61,5184.99C2768.27,5350.76 1777.3,5548.62 1141.31,5387.53C1141.31,5387.53 1696.41,5175.68 2023.89,5014.8C2066.86,4993.69 2105.97,4973.45 2139.33,4954.69C2170.73,4937.04 2201.11,4919.76 2230.72,4902.77C2263.16,4884.15 2294.64,4865.89 2325,4848.04C2390.33,4809.64 2450.86,4773.01 2507.15,4737.95C3038.85,4406.68 3141.94,4190.85 3264.69,4044.53C3451.55,3821.8 3678.69,3820.87 3953.3,3878.6C3953.3,3878.6 3521.35,3800.52 3324.02,4147.05C2904.38,4884 2594.59,5068.49 2594.59,5068.49ZM2903.87,4610.94C2860.05,4651 2813.27,4689.92 2764.55,4727.58C2713.45,4767.06 2660.2,4805.13 2605.91,4841.61C2593.27,4850.11 2580.58,4858.53 2567.84,4866.85C2498.97,4911.83 2428.89,4954.21 2359.81,4993.66C2005.7,5195.88 1678.05,5320.89 1678.05,5320.89C2396.88,5362.67 3158.95,5098.69 3158.95,5098.69C2589.19,5245.85 2196.33,5200.27 2196.33,5200.27C2314.36,5131.21 2423.41,5052.58 2518.87,4975.74C2571.63,4933.28 2620.17,4891.42 2663.76,4851.98C2669.91,4846.41 2676.03,4840.87 2681.98,4835.4C2726.58,4794.47 2765.38,4756.7 2797.61,4724.19C2865.38,4655.82 2903.87,4610.94 2903.87,4610.94ZM4317.84,4312.64C4317.84,4312.64 3740.48,4751.06 3158.69,4792.15C3158.69,4792.15 3270.9,4206.61 4020.07,4010.15C4020.07,4010.15 3479.86,4209.53 3329.63,4656.54C3329.63,4656.54 3743.03,4661.37 4317.84,4312.64Z" style="fill:none;stroke:rgb(0,240,255);stroke-width:0.67px;stroke-linecap:butt;stroke-miterlimit:2;"/>
            </g>
            <g transform="matrix(0.164437,0,0,-0.163615,-580.239,747.995)">
                <path d="M5346.66,2197.34C5193.65,2144.73 5000.63,1980.32 4591.03,1801.43C4452.85,1741.08 4119.23,1648.76 4119.23,1648.76C4261.24,1594.62 4449.29,1579.28 4628.57,1584.43C4649.74,1594.82 4669,1604.79 4685.43,1614.03C4700.9,1622.73 4715.86,1631.24 4730.45,1639.61C4618.35,1631.98 4489.01,1632.26 4364.78,1653.4C4364.78,1653.4 4774.15,1802.09 4999.93,1973.58C4999.93,1973.58 4798.26,1789.89 4604.66,1684.12C4604.66,1684.12 4668.38,1669.39 4776.89,1666.57C4809.06,1685.48 4838.88,1703.52 4866.6,1720.79C4811.09,1721.93 4780.23,1727.54 4780.23,1727.54C5073.21,2011.96 5246.51,2148.14 5346.66,2197.34Z" style="fill:url(#_Linear4);"/>
            </g>
            <g transform="matrix(0.164437,0,0,-0.163615,-580.239,747.995)">
                <path d="M5644.87,2992.46C5716.15,3294.41 5456.85,3524.43 5456.85,3524.43C5120.83,3083.26 5376.81,2194.59 5376.81,2194.59C5376.81,2194.59 5282.66,2834.97 5464.93,3071.28C5464.93,3071.28 5565.31,3031.65 5508.45,2738.14C5446.69,2419.36 5556.02,2270.73 5556.02,2270.73C5466.34,2527.81 5602.27,2812.05 5644.87,2992.46ZM5472.5,3346.64C5472.5,3346.64 5621.09,3204.91 5599.64,2985.43C5599.64,2985.43 5595.67,3125.92 5485.22,3222.6C5485.22,3222.6 5349.91,3135.1 5323.73,2878.63C5323.73,2878.63 5329.77,3198.67 5472.5,3346.64Z" style="fill:url(#_Linear5);"/>
            </g>
            <g transform="matrix(0.164437,0,0,-0.163615,-580.239,747.995)">
                <path d="M6620.9,1707.35C6619.62,1732.38 6597.17,1751.58 6570.75,1750.23C6544.33,1748.88 6523.95,1727.5 6525.22,1702.47C6526.51,1677.44 6548.96,1658.24 6575.38,1659.59C6601.79,1660.94 6622.18,1682.32 6620.9,1707.35Z" style="fill:url(#_Linear6);"/>
            </g>
            <g transform="matrix(0.164437,0,0,-0.163615,-580.239,747.995)">
                <path d="M5939.44,1715.72C5939.44,1715.72 6302.21,1368.84 6634.34,1562.68C6805.44,1662.54 6771.17,1770.05 6958.83,1789.23C7057.31,1799.29 7356.68,1824.97 7540.95,2035.81C7540.95,2035.81 7281.73,1876.02 6990.13,1896.58C6801.38,1909.89 6550.6,1950.27 6432.56,2065.68C6312.89,2182.7 6363.29,2385.55 6059.19,2470.15C5880.2,2519.93 5645.04,2562.28 5595.23,2713.13C5595.23,2713.13 5601.39,2590.85 5825.99,2501.12C6035.29,2417.5 6171.28,2386.56 6233.93,2284.19C6321.65,2140.84 6352.06,2016.48 6559.69,1951.6C6611.84,1935.3 6707.32,1858.38 6698.43,1769.26C6690.96,1694.43 6631.48,1624.15 6535.54,1594.41C6413.98,1556.72 6186.38,1544.49 5939.44,1715.72Z" style="fill:url(#_Linear7);"/>
            </g>
            <g transform="matrix(0.164437,0,0,-0.163615,-580.239,747.995)">
                <path d="M5991.19,1935.83C5639.87,1722.68 5387.2,1725.64 5387.2,1725.64C5479.02,1998.85 5809.19,2120.7 5809.19,2120.7C5351.31,2000.63 5282.72,1642.75 5282.72,1642.75C5638.31,1667.87 5991.19,1935.83 5991.19,1935.83Z" style="fill:url(#_Linear8);"/>
            </g>
            <g transform="matrix(0.164437,0,0,-0.163615,-580.239,747.995)">
                <path d="M4937.95,1473.86C4937.95,1473.86 5127.29,1586.62 5383.77,2037.03C5504.38,2248.83 5768.38,2201.11 5768.38,2201.11C5600.54,2236.39 5461.72,2235.82 5347.51,2099.69C5272.49,2010.26 5209.48,1878.35 4884.51,1675.88C4850.11,1654.45 4813.11,1632.06 4773.18,1608.59C4754.62,1597.68 4735.39,1586.52 4715.56,1575.14C4697.46,1564.76 4678.89,1554.2 4659.7,1543.41C4639.31,1531.94 4615.41,1519.58 4589.15,1506.67C4388.99,1408.34 4049.72,1278.86 4049.72,1278.86C4438.43,1180.41 5044.1,1301.34 5329.12,1402.65C5809.22,1573.32 6046.02,1882.76 6046.02,1882.76C5432.4,1438.98 4937.95,1473.86 4937.95,1473.86ZM5126.98,1753.51C5126.98,1753.51 5103.46,1726.08 5062.03,1684.29C5042.34,1664.42 5018.62,1641.34 4991.36,1616.32C4987.73,1612.98 4983.99,1609.59 4980.23,1606.19C4953.59,1582.08 4923.92,1556.5 4891.67,1530.55C4833.33,1483.58 4766.68,1435.52 4694.54,1393.32C4694.54,1393.32 4934.65,1365.46 5282.88,1455.4C5282.88,1455.4 4817.11,1294.06 4377.77,1319.59C4377.77,1319.59 4578.03,1396 4794.46,1519.59C4836.68,1543.7 4879.51,1569.61 4921.6,1597.1C4929.39,1602.18 4937.15,1607.33 4944.87,1612.52C4978.05,1634.82 5010.6,1658.09 5041.83,1682.22C5071.61,1705.24 5100.2,1729.02 5126.98,1753.51Z" style="fill:url(#_Linear9);"/>
            </g>
        </g>
    </g>
    <defs>
        <linearGradient id="_Linear1" x1="0" y1="0" x2="1" y2="0" gradientUnits="userSpaceOnUse" gradientTransform="matrix(41601.9,0,0,5407.84,-78.161,2219.62)"><stop offset="0" style="stop-color:rgb(238,9,121);stop-opacity:1"/><stop offset="1" style="stop-color:rgb(255,106,0);stop-opacity:1"/></linearGradient>
        <linearGradient id="_Linear4" x1="0" y1="0" x2="1" y2="0" gradientUnits="userSpaceOnUse" gradientTransform="matrix(1227.43,0,0,613.85,4119.23,1890.42)"><stop offset="0" style="stop-color:rgb(238,9,121);stop-opacity:1"/><stop offset="1" style="stop-color:rgb(255,106,0);stop-opacity:1"/></linearGradient>
        <linearGradient id="_Linear5" x1="0" y1="0" x2="1" y2="0" gradientUnits="userSpaceOnUse" gradientTransform="matrix(373.762,0,0,1329.85,5283.5,2859.51)"><stop offset="0" style="stop-color:rgb(238,9,121);stop-opacity:1"/><stop offset="1" style="stop-color:rgb(255,106,0);stop-opacity:1"/></linearGradient>
        <linearGradient id="_Linear6" x1="0" y1="0" x2="1" y2="0" gradientUnits="userSpaceOnUse" gradientTransform="matrix(95.7895,0,0,90.7787,6525.17,1704.91)"><stop offset="0" style="stop-color:rgb(238,9,121);stop-opacity:1"/><stop offset="1" style="stop-color:rgb(255,106,0);stop-opacity:1"/></linearGradient>
        <linearGradient id="_Linear7" x1="0" y1="0" x2="1" y2="0" gradientUnits="userSpaceOnUse" gradientTransform="matrix(1945.72,0,0,1209.33,5595.23,2108.47)"><stop offset="0" style="stop-color:rgb(238,9,121);stop-opacity:1"/><stop offset="1" style="stop-color:rgb(255,106,0);stop-opacity:1"/></linearGradient>
        <linearGradient id="_Linear8" x1="0" y1="0" x2="1" y2="0" gradientUnits="userSpaceOnUse" gradientTransform="matrix(708.461,0,0,477.951,5282.72,1881.73)"><stop offset="0" style="stop-color:rgb(238,9,121);stop-opacity:1"/><stop offset="1" style="stop-color:rgb(255,106,0);stop-opacity:1"/></linearGradient>
        <linearGradient id="_Linear9" x1="0" y1="0" x2="1" y2="0" gradientUnits="userSpaceOnUse" gradientTransform="matrix(1996.29,0,0,978.391,4049.72,1731.55)"><stop offset="0" style="stop-color:rgb(238,9,121);stop-opacity:1"/><stop offset="1" style="stop-color:rgb(255,106,0);stop-opacity:1"/></linearGradient>
    </defs>
</svg>
