<?xml version="1.0" encoding="UTF-8" standalone="no"?><!DOCTYPE svg PUBLIC "-//W3C//DTD SVG 1.1//EN" "http://www.w3.org/Graphics/SVG/1.1/DTD/svg11.dtd"><svg width="100%" height="100%" viewBox="0 0 40000 4000" version="1.1" xmlns="http://www.w3.org/2000/svg" xmlns:xlink="http://www.w3.org/1999/xlink" xml:space="preserve" xmlns:serif="http://www.serif.com/" style="fill-rule:evenodd;clip-rule:evenodd;stroke-linejoin:round;stroke-miterlimit:2;"><path d="M40979.5,-1301.96l0,6948.08l-42944.7,-0l-0,-6948.08l42944.7,0Zm-39258.5,1901.62l-750.328,830.344l250.107,276.782l500.221,-553.561l-0,1729.77l353.708,0l0,-2283.33l-353.708,0Zm1120.08,2283.33l-0,-2283.33l-353.709,0l0,2283.33l353.709,0Zm36346.5,-2283.33l-353.709,782.857l-353.709,-782.857l-353.708,0l530.563,1174.29l-0,1109.05l353.708,0l0,-1109.05l530.563,-1174.29l-353.708,0Zm-34902.2,0l-677.941,1157.51l-0,-1157.51l-353.709,0l-0,2283.33l353.709,0l-0,-472.976l1061.12,-1810.36l-383.184,0Zm-237.462,1298.63l266.938,984.703l353.708,0l-366.271,-1418.69l-254.375,433.984Zm10030.8,-320.059l0,326.191l495.192,-0l0,397.561c-131.954,142.714 -309.21,222.489 -493.718,222.201c-390.7,-0 -707.417,-350.492 -707.417,-782.857c-0,-432.366 316.717,-782.857 707.417,-782.857c338.794,-0 527.822,260.919 543.473,281.665l271.708,-250.579c-88.722,-117.723 -367.327,-422.515 -815.181,-422.515c-586.036,0 -1061.13,525.754 -1061.13,1174.29c0,648.532 475.09,1174.29 1061.13,1174.29c560.039,0 846.484,-466.028 847.427,-467.463l0,-869.917l-848.901,-0.001Zm2085.41,-978.571l-383.184,0l-663.204,2283.33l383.185,0l471.611,-1623.7l471.612,1623.7l383.184,0l-663.204,-2283.33Zm1264.51,1957.14l-0,-1957.14l-353.709,0l0,2283.33l1120.08,0l0,-326.19l-766.368,-0Zm2773.66,-1957.14l-854.796,0l-0,2283.33l353.709,0l-0,-750.238l501.087,0c266.578,0 618.99,-262.583 618.99,-766.547c-0,-487.655 -331.779,-766.548 -618.99,-766.548Zm-0,1206.9l-501.087,-0l-0,-880.714l501.087,-0c146.524,-0 265.281,197.149 265.281,440.357c0,243.207 -118.757,440.357 -265.281,440.357Zm1267.46,-1206.9l-353.709,0l-0,2283.33l353.709,0l-0,-978.571l589.514,-0l-0,-326.191l-589.514,0l-0,-978.571Zm1061.12,2283.33l0,-2283.33l-353.708,0l-0,2283.33l353.708,0Zm1376.52,-2315.95c-586.042,0 -1061.12,525.744 -1061.12,1174.29c-0,648.541 475.083,1174.29 1061.12,1174.29c586.043,0 1061.13,-525.744 1061.13,-1174.29c0,-648.542 -475.08,-1174.29 -1061.13,-1174.29Zm0,1957.14c-390.694,-0 -707.417,-350.498 -707.417,-782.857c0,-432.359 316.723,-782.857 707.417,-782.857c390.695,-0 707.418,350.498 707.418,782.857c-0,432.359 -316.723,782.857 -707.418,782.857Zm1108.29,-1924.52l0,326.191l530.563,-0l0,1957.14l353.709,0l-0,-1957.14l530.563,-0l-0,-326.191l-1414.84,0Zm2523.12,-32.619c-586.042,0 -1061.13,525.744 -1061.13,1174.29c0,648.541 475.084,1174.29 1061.13,1174.29c586.042,0 1061.13,-525.744 1061.13,-1174.29c-0,-648.542 -475.081,-1174.29 -1061.13,-1174.29Zm-0,1957.14c-390.695,-0 -707.417,-350.498 -707.417,-782.857c-0,-432.359 316.722,-782.857 707.417,-782.857c390.695,-0 707.417,350.498 707.417,782.857c0,432.359 -316.722,782.857 -707.417,782.857Zm2338.9,-945.953l0,326.191l495.192,-0l0,397.561c-131.954,142.714 -309.21,222.489 -493.718,222.201c-390.701,-0 -707.417,-350.492 -707.417,-782.857c-0,-432.366 316.716,-782.857 707.417,-782.857c338.794,-0 527.822,260.919 543.473,281.665l271.707,-250.579c-88.722,-117.723 -367.326,-422.515 -815.18,-422.515c-586.036,0 -1061.13,525.754 -1061.13,1174.29c0,648.532 475.09,1174.29 1061.13,1174.29c560.039,0 846.484,-466.028 847.427,-467.463l-0,-869.917l-848.901,-0.001Zm2450.17,381.934c43.89,-44.392 227.7,-253.088 227.7,-593.957c0,-468.084 -314.093,-766.548 -618.99,-766.548l-854.796,0l0,2283.33l353.709,0l-0,-750.238l501.087,0c20.239,-0.001 40.464,-1.217 60.584,-3.643l234.173,753.881l383.184,0l-286.651,-922.828Zm-391.29,-153.6l-501.087,-0l-0,-880.714l501.087,-0c146.524,-0 265.281,197.149 265.281,440.357c0,243.207 -118.757,440.357 -265.281,440.357Zm1874.66,-1206.9l-383.185,0l-663.203,2283.33l383.184,0l471.611,-1623.7l471.612,1623.7l383.184,0l-663.203,-2283.33Zm1765.6,0l-854.796,0l0,2283.33l353.709,0l-0,-750.238l501.087,0c266.579,0 618.99,-262.583 618.99,-766.547c0,-487.655 -331.778,-766.548 -618.99,-766.548Zm0,1206.9l-501.087,-0l-0,-880.714l501.087,-0c146.524,-0 265.282,197.149 265.282,440.357c-0,243.207 -118.758,440.357 -265.282,440.357Zm1267.46,-1206.9l-353.709,0l0,2283.33l353.709,0l0,-978.571l589.514,-0l0,-326.191l-589.514,0l0,-978.571Zm1061.13,2283.33l-0,-2283.33l-353.709,0l0,2283.33l353.709,0Zm-31710,-2283.33l-1237.98,0l0,2283.33l1237.98,0l-0,-326.19l-884.272,-0l0,-1630.95l884.272,-0l-0,-326.191Zm-265.282,1304.76l0,-326.191l-501.087,0l-0,326.191l501.087,-0Zm2449.43,619.762c-390.7,-0 -707.417,-350.492 -707.417,-782.857c0,-432.366 316.717,-782.857 707.417,-782.857c209.997,-0.239 409.189,102.996 543.474,281.665l271.707,-250.579c-201.408,-268.014 -500.19,-422.875 -815.181,-422.515c-586.036,0 -1061.13,525.754 -1061.13,1174.29c0,648.532 475.09,1174.29 1061.13,1174.29c314.991,0.36 613.773,-154.501 815.181,-422.514l-271.707,-250.58c-134.285,178.669 -333.477,281.904 -543.474,281.666Zm1977.82,-1924.52l-383.184,0l-663.204,2283.33l383.184,0l471.612,-1623.7l471.611,1623.7l383.185,0l-663.204,-2283.33Zm2156.89,1360.51c43.889,-44.392 227.7,-253.088 227.7,-593.957c-0,-468.084 -314.094,-766.548 -618.991,-766.548l-854.795,0l-0,2283.33l353.708,0l0,-750.238l501.087,0c20.24,-0.001 40.464,-1.217 60.585,-3.643l234.173,753.881l383.184,0l-286.651,-922.828Zm-391.291,-153.6l-501.087,-0l0,-880.714l501.087,-0c146.524,-0 265.282,197.149 265.282,440.357c-0,243.207 -118.758,440.357 -265.282,440.357Zm-11404.2,-1206.9l-353.708,0l-0,2283.33l353.708,0l0,-1729.77l167.145,184.966l250.111,-276.782l-417.256,-461.749Z" style="fill:#141414;"/></svg>