<?xml version="1.0" encoding="UTF-8" standalone="no"?>
<!DOCTYPE svg PUBLIC "-//W3C//DTD SVG 1.1//EN" "http://www.w3.org/Graphics/SVG/1.1/DTD/svg11.dtd">
<svg width="100%" height="100%" viewBox="0 0 1080 1080" version="1.1" xmlns="http://www.w3.org/2000/svg" xmlns:xlink="http://www.w3.org/1999/xlink" xml:space="preserve" xmlns:serif="http://www.serif.com/" style="fill-rule:evenodd;clip-rule:evenodd;stroke-linejoin:round;stroke-miterlimit:2;">
    <g transform="matrix(1.97061,0,0,1.99097,-396.274,-292.317)">
        <rect x="201.092" y="146.821" width="548.054" height="542.448" style="fill:rgb(2,0,1);"/>
    </g>
    <g transform="matrix(2.10194,0,0,2.10194,-445.753,-333.202)">
        <path d="M212.067,158.521L212.067,302.388L355.934,302.388L355.934,158.521L212.067,158.521ZM376.486,158.521L376.486,179.073L397.039,179.073L397.039,199.626L417.591,199.626L417.591,220.178L438.144,220.178L438.144,240.731L499.801,240.731L499.801,302.388L520.353,302.388L520.353,240.731L499.801,240.731L499.801,220.178L520.353,220.178L520.353,240.731L540.906,240.731L540.906,261.283L561.458,261.283L561.458,179.073L540.906,179.073L540.906,199.626L520.353,199.626L520.353,158.521L499.801,158.521L499.801,199.626L479.248,199.626L479.248,220.178L438.144,220.178L438.144,179.073L479.248,179.073L479.248,158.521L417.591,158.521L417.591,179.073L397.039,179.073L397.039,158.521L376.486,158.521ZM582.01,158.521L582.01,302.388L725.877,302.388L725.877,158.521L582.01,158.521ZM335.381,179.073L335.381,281.835L232.619,281.835L232.619,179.073L335.381,179.073ZM705.325,179.073L705.325,281.835L602.563,281.835L602.563,179.073L705.325,179.073ZM253.172,199.626L253.172,261.283L314.829,261.283L314.829,199.626L253.172,199.626ZM623.115,199.626L623.115,261.283L684.772,261.283L684.772,199.626L623.115,199.626ZM397.039,240.731L397.039,261.283L417.591,261.283L417.591,322.94L397.039,322.94L397.039,281.835L376.486,281.835L376.486,322.94L397.039,322.94L397.039,364.045L417.591,364.045L417.591,384.597L397.039,384.597L397.039,364.045L376.486,364.045L376.486,343.493L355.934,343.493L355.934,322.94L335.381,322.94L335.381,343.493L355.934,343.493L355.934,364.045L335.381,364.045L335.381,343.493L314.829,343.493L314.829,322.94L273.724,322.94L273.724,343.493L253.172,343.493L253.172,322.94L212.067,322.94L212.067,343.493L232.619,343.493L232.619,364.045L253.172,364.045L253.172,384.597L273.724,384.597L273.724,405.15L314.829,405.15L314.829,425.702L273.724,425.702L273.724,405.15L232.619,405.15L232.619,364.045L212.067,364.045L212.067,507.912L232.619,507.912L232.619,466.807L253.172,466.807L253.172,487.359L273.724,487.359L273.724,507.912L314.829,507.912L314.829,487.359L294.277,487.359L294.277,466.807L314.829,466.807L314.829,446.255L335.381,446.255L335.381,466.807L355.934,466.807L355.934,487.359L335.381,487.359L335.381,507.912L376.486,507.912L376.486,528.464L397.039,528.464L397.039,507.912L376.486,507.912L376.486,487.359L397.039,487.359L397.039,507.912L417.591,507.912L417.591,549.017L397.039,549.017L397.039,569.569L376.486,569.569L376.486,610.674L438.144,610.674L438.144,631.226L376.486,631.226L376.486,672.331L397.039,672.331L397.039,651.779L417.591,651.779L417.591,672.331L479.248,672.331L479.248,631.226L458.696,631.226L458.696,590.121L479.248,590.121L479.248,569.569L438.144,569.569L438.144,549.017L479.248,549.017L479.248,569.569L499.801,569.569L499.801,610.674L540.906,610.674L540.906,631.226L561.458,631.226L561.458,610.674L540.906,610.674L540.906,590.121L561.458,590.121L561.458,610.674L602.563,610.674L602.563,590.121L643.668,590.121L643.668,487.359L623.115,487.359L623.115,466.807L602.563,466.807L602.563,487.359L582.01,487.359L582.01,446.255L561.458,446.255L561.458,466.807L540.906,466.807L540.906,425.702L479.248,425.702L479.248,384.597L458.696,384.597L458.696,343.493L479.248,343.493L479.248,322.94L458.696,322.94L458.696,302.388L438.144,302.388L438.144,281.835L458.696,281.835L458.696,302.388L479.248,302.388L479.248,322.94L499.801,322.94L499.801,364.045L479.248,364.045L479.248,384.597L499.801,384.597L499.801,405.15L540.906,405.15L540.906,425.702L561.458,425.702L561.458,405.15L540.906,405.15L540.906,343.493L520.353,343.493L520.353,322.94L499.801,322.94L499.801,302.388L479.248,302.388L479.248,281.835L458.696,281.835L458.696,261.283L417.591,261.283L417.591,240.731L397.039,240.731ZM540.906,281.835L540.906,343.493L561.458,343.493L561.458,281.835L540.906,281.835ZM582.01,322.94L582.01,343.493L602.563,343.493L602.563,364.045L623.115,364.045L623.115,384.597L643.668,384.597L643.668,405.15L705.325,405.15L705.325,425.702L725.877,425.702L725.877,364.045L705.325,364.045L705.325,343.493L602.563,343.493L602.563,322.94L582.01,322.94ZM705.325,322.94L705.325,343.493L725.877,343.493L725.877,322.94L705.325,322.94ZM438.144,343.493L438.144,364.045L417.591,364.045L417.591,343.493L438.144,343.493ZM314.829,364.045L314.829,384.597L273.724,384.597L273.724,364.045L314.829,364.045ZM561.458,364.045L561.458,405.15L582.01,405.15L582.01,425.702L602.563,425.702L602.563,384.597L582.01,384.597L582.01,364.045L561.458,364.045ZM355.934,384.597L355.934,405.15L335.381,405.15L335.381,384.597L355.934,384.597ZM664.22,384.597L664.22,364.045L705.325,364.045L705.325,384.597L664.22,384.597ZM397.039,405.15L397.039,425.702L376.486,425.702L376.486,405.15L397.039,405.15ZM438.144,405.15L438.144,384.597L458.696,384.597L458.696,405.15L438.144,405.15ZM253.172,425.702L253.172,446.255L273.724,446.255L273.724,466.807L253.172,466.807L253.172,446.255L232.619,446.255L232.619,425.702L253.172,425.702ZM438.144,446.255L458.696,446.255L458.696,466.807L499.801,466.807L499.801,446.255L520.353,446.255L520.353,507.912L499.801,507.912L499.801,487.359L458.696,487.359L458.696,466.807L438.144,466.807L438.144,446.255L417.591,446.255L417.591,405.15L438.144,405.15L438.144,446.255ZM623.115,425.702L623.115,466.807L643.668,466.807L643.668,487.359L664.22,487.359L664.22,528.464L705.325,528.464L705.325,549.017L684.772,549.017L684.772,610.674L623.115,610.674L623.115,631.226L582.01,631.226L582.01,651.779L540.906,651.779L540.906,672.331L602.563,672.331L602.563,651.779L643.668,651.779L643.668,672.331L664.22,672.331L664.22,651.779L643.668,651.779L643.668,631.226L664.22,631.226L664.22,651.779L705.325,651.779L705.325,672.331L725.877,672.331L725.877,590.121L705.325,590.121L705.325,569.569L725.877,569.569L725.877,528.464L705.325,528.464L705.325,487.359L684.772,487.359L684.772,466.807L705.325,466.807L705.325,487.359L725.877,487.359L725.877,446.255L705.325,446.255L705.325,425.702L684.772,425.702L684.772,446.255L643.668,446.255L643.668,425.702L623.115,425.702ZM335.381,446.255L335.381,425.702L376.486,425.702L376.486,446.255L417.591,446.255L417.591,466.807L438.144,466.807L438.144,487.359L458.696,487.359L458.696,528.464L438.144,528.464L438.144,507.912L417.591,507.912L417.591,487.359L397.039,487.359L397.039,466.807L376.486,466.807L376.486,446.255L335.381,446.255ZM479.248,446.255L458.696,446.255L458.696,425.702L479.248,425.702L479.248,446.255ZM623.115,507.912L623.115,569.569L561.458,569.569L561.458,507.912L623.115,507.912ZM212.067,528.464L212.067,672.331L355.934,672.331L355.934,528.464L212.067,528.464ZM499.801,549.017L479.248,549.017L479.248,507.912L499.801,507.912L499.801,549.017ZM540.906,528.464L540.906,549.017L520.353,549.017L520.353,528.464L540.906,528.464ZM582.01,528.464L582.01,549.017L602.563,549.017L602.563,528.464L582.01,528.464ZM335.381,549.017L335.381,651.779L232.619,651.779L232.619,549.017L335.381,549.017ZM253.172,569.569L253.172,631.226L314.829,631.226L314.829,569.569L253.172,569.569ZM479.248,610.674L479.248,631.226L499.801,631.226L499.801,651.779L520.353,651.779L520.353,631.226L499.801,631.226L499.801,610.674L479.248,610.674Z" style="fill:url(#_Radial1);"/>
    </g>
    <defs>
        <radialGradient id="_Radial1" cx="0" cy="0" r="1" gradientUnits="userSpaceOnUse" gradientTransform="matrix(517.984,519.631,-519.631,517.984,211.015,156.296)"><stop offset="0" style="stop-color:rgb(238,9,121);stop-opacity:1"/><stop offset="0.42" style="stop-color:rgb(243,39,83);stop-opacity:1"/><stop offset="1" style="stop-color:rgb(255,105,0);stop-opacity:1"/></radialGradient>
    </defs>
</svg>
