<?xml version="1.0" standalone="no"?>
<!DOCTYPE svg PUBLIC "-//W3C//DTD SVG 20010904//EN"
 "http://www.w3.org/TR/2001/REC-SVG-20010904/DTD/svg10.dtd">
<svg version="1.0" xmlns="http://www.w3.org/2000/svg"
 width="700.000000pt" height="700.000000pt" viewBox="0 0 700.000000 700.000000"
 preserveAspectRatio="xMidYMid meet">
<metadata>
Created by potrace 1.14, written by Peter Selinger 2001-2017
</metadata>
<g transform="translate(0.000000,700.000000) scale(0.100000,-0.100000)"
fill="#000000" stroke="none">
<path d="M0 3500 l0 -3500 3500 0 3500 0 0 3500 0 3500 -3500 0 -3500 0 0
-3500z m1545 1896 c499 -61 945 -167 1280 -303 264 -107 560 -281 776 -455
l106 -86 39 37 c210 193 492 338 723 372 157 22 327 -3 456 -69 97 -48 163
-102 275 -222 158 -168 174 -176 405 -205 397 -49 676 -161 889 -356 31 -28
55 -53 53 -55 -2 -2 -28 9 -58 25 -138 75 -358 150 -554 188 -118 22 -365 22
-535 -1 -449 -60 -717 -172 -840 -351 -16 -23 -57 -104 -92 -181 -35 -76 -79
-161 -98 -188 -100 -146 -225 -215 -552 -305 -492 -136 -644 -235 -677 -441
-10 -63 -9 -70 33 -210 80 -260 80 -263 80 -415 -1 -122 -4 -151 -27 -228 -48
-157 -149 -332 -265 -458 l-49 -54 -48 74 c-232 358 -305 912 -215 1619 22
168 88 509 119 613 31 106 31 106 2 137 -15 15 -79 93 -143 173 -234 293 -426
450 -898 732 -236 140 -391 220 -665 338 l-180 78 -3 112 -3 112 268 -6 c147
-3 327 -13 398 -21z m-44 -592 c160 -81 525 -314 663 -424 105 -84 271 -251
365 -369 99 -126 174 -231 168 -237 -10 -10 -173 75 -387 201 -307 182 -421
245 -625 345 -249 122 -368 171 -602 248 l-203 67 0 77 c0 89 -10 82 135 98
131 13 176 16 318 18 108 2 122 0 168 -24z"/>
</g>
</svg>
